<?xml version="1.0" encoding="UTF-8"?>
<svg id="logo" xmlns="http://www.w3.org/2000/svg" viewBox="0 0 500 120">
  <g>
    <path d="M127.28,100.23h3.1v5.24h6.01v-5.24h3.1v14.05h-3.1v-6.07h-6.01v6.07h-3.1v-14.05Z"/>
    <path d="M152.98,100.23h2.56l6.11,14.05h-3.49l-1.21-2.98h-5.46l-1.17,2.98h-3.41l6.07-14.05ZM154.17,104.32l-1.71,4.37h3.43l-1.73-4.37Z"/>
    <path d="M176.7,103.67c-.25-.32-.59-.55-1.02-.7s-.84-.23-1.22-.23c-.23,0-.46.03-.7.08-.24.05-.46.14-.68.25-.21.11-.38.26-.52.45-.13.19-.2.41-.2.68,0,.42.16.75.48.97s.72.42,1.2.58c.48.16,1,.32,1.56.48.56.16,1.07.38,1.56.68.48.29.88.68,1.2,1.17s.48,1.15.48,1.97-.15,1.46-.44,2.04c-.29.58-.68,1.07-1.18,1.45-.5.38-1.07.67-1.73.85-.65.18-1.35.28-2.07.28-.91,0-1.76-.14-2.54-.42-.78-.28-1.51-.73-2.18-1.35l2.2-2.42c.32.42.72.75,1.2.98.48.23.98.35,1.5.35.25,0,.51-.03.76-.09.26-.06.49-.15.69-.27s.37-.27.5-.46c.13-.19.19-.4.19-.65,0-.42-.16-.76-.49-1-.32-.25-.73-.45-1.22-.63-.49-.17-1.02-.34-1.59-.52-.57-.17-1.1-.4-1.59-.69-.49-.29-.9-.68-1.22-1.15-.32-.48-.49-1.1-.49-1.89s.15-1.42.45-1.99c.3-.57.7-1.04,1.19-1.43.5-.38,1.07-.67,1.72-.86.65-.19,1.32-.29,2-.29.79,0,1.56.11,2.3.34.74.23,1.41.6,2,1.13l-2.12,2.32Z"/>
    <path d="M187.54,100.23h3.1v5.24h6.01v-5.24h3.1v14.05h-3.1v-6.07h-6.01v6.07h-3.1v-14.05Z"/>
    <path d="M209.89,100.23h3.1v14.05h-3.1v-14.05Z"/>
    <path d="M222.74,100.23h5.24c.61,0,1.22.04,1.84.13.62.09,1.17.26,1.66.52s.89.62,1.19,1.08.46,1.08.46,1.85-.22,1.45-.67,1.98c-.44.52-1.03.9-1.76,1.12v.04c.46.07.88.2,1.26.39.38.19.7.44.97.73s.48.65.63,1.04c.15.4.22.82.22,1.27,0,.74-.16,1.36-.48,1.86-.32.5-.73.9-1.23,1.2-.5.3-1.07.52-1.7.65-.63.13-1.25.2-1.88.2h-5.76v-14.05ZM225.83,105.85h2.24c.24,0,.47-.03.7-.08.23-.05.44-.14.63-.26s.33-.28.45-.48.17-.44.17-.71c0-.29-.06-.53-.19-.72-.13-.19-.29-.34-.49-.45s-.42-.18-.68-.23c-.25-.05-.5-.07-.73-.07h-2.1v3ZM225.83,111.67h2.78c.24,0,.48-.03.72-.08.24-.05.47-.15.66-.28.2-.13.36-.3.49-.52.13-.21.19-.47.19-.77,0-.33-.08-.6-.25-.8-.17-.2-.37-.36-.63-.47-.25-.11-.52-.18-.81-.22-.29-.04-.56-.06-.81-.06h-2.34v3.2Z"/>
    <path d="M245.74,100.23h2.56l6.11,14.05h-3.49l-1.21-2.98h-5.46l-1.17,2.98h-3.41l6.07-14.05ZM246.93,104.32l-1.71,4.37h3.43l-1.73-4.37Z"/>
    <path d="M261.66,100.23h4.68l3.24,9.17h.04l3.26-9.17h4.66v14.05h-3.1v-10.78h-.04l-3.69,10.78h-2.36l-3.55-10.78h-.04v10.78h-3.1v-14.05Z"/>
    <path d="M286.49,100.23h3.1v14.05h-3.1v-14.05Z"/>
    <path d="M298.54,100.23h4.21l5.97,9.77h.04v-9.77h3.1v14.05h-4.05l-6.13-10h-.04v10h-3.1v-14.05Z"/>
    <path d="M319.68,107.26c0-1.12.19-2.14.57-3.06s.9-1.69,1.58-2.33c.68-.64,1.48-1.13,2.4-1.48.93-.34,1.94-.52,3.04-.52s2.11.17,3.04.52,1.73.84,2.4,1.48,1.2,1.42,1.58,2.33.57,1.93.57,3.06-.19,2.14-.57,3.06-.9,1.69-1.58,2.33-1.48,1.13-2.4,1.48c-.93.34-1.94.52-3.04.52s-2.11-.17-3.04-.52c-.93-.34-1.73-.84-2.4-1.48-.67-.64-1.2-1.42-1.58-2.33s-.57-1.93-.57-3.06ZM322.9,107.26c0,.66.1,1.27.31,1.82s.5,1.03.88,1.43c.38.4.84.72,1.38.94s1.13.34,1.8.34,1.26-.11,1.8-.34c.54-.23,1-.54,1.38-.94.38-.4.68-.88.88-1.43.2-.55.31-1.15.31-1.82s-.1-1.25-.31-1.81c-.21-.56-.5-1.04-.88-1.44-.38-.4-.84-.72-1.38-.94-.54-.22-1.13-.34-1.8-.34s-1.26.11-1.8.34c-.54.23-1,.54-1.38.94-.38.4-.68.88-.88,1.44s-.31,1.16-.31,1.81Z"/>
    <path d="M342.25,100.23h4.21l5.97,9.77h.04v-9.77h3.1v14.05h-4.05l-6.13-10h-.04v10h-3.1v-14.05Z"/>
    <path d="M364.21,100.23h9.55v2.86h-6.45v2.62h6.09v2.86h-6.09v2.86h6.81v2.86h-9.91v-14.05Z"/>
  </g>
  <g>
    <rect x="11.31" y="18.35" width="19.89" height="50.28" rx=".38" ry=".38"/>
    <rect x="60.68" y="18.35" width="19.89" height="50.28" rx=".38" ry=".38"/>
    <rect x="262.84" y="18.46" width="64.39" height="12.74" rx=".38" ry=".38"/>
    <rect x="262.84" y="55.44" width="64.39" height="13.28" rx=".38" ry=".38"/>
    <rect x="262.84" y="36.89" width="64.39" height="12.7" rx=".38" ry=".38"/>
    <rect x="93.26" y="36.65" width="27.99" height="12.74" rx=".38" ry=".38"/>
    <rect x="93.26" y="18.37" width="27.99" height="12.74" rx=".38" ry=".38"/>
    <path d="M169.61,18.37h-21.72c-.14,0-.26.07-.33.19l-28.72,49.74c-.09.15.02.35.2.35h21.72c.14,0,.26-.07.33-.19l28.72-49.74c.09-.15-.02-.35-.2-.35Z"/>
    <path d="M393,25.47c-5.71-5.09-13.54-7.89-22.05-7.89s-15.38,2.57-22.37,8.28c-6.14,5.01-9.5,13.17-9.84,20.38-.46,9.9,5.14,17.57,13.87,21.08,12.07,4.23,15.51-4.16,18.37-9.11l12.42-21.51c.25-.43.84-.51,1.18-.16,2.5,2.59,3.83,5.92,3.97,9.7.16,4.51-.68,7.81-2.15,11-.81,1.76-1.61,3.28-3.63,6.19-1.47,2.13-2.97,3.61-3.92,4.56-.62.69-.34.89.17.89h13.27c.7,0,.79-.08.94-.24,3.02-2.43,8.97-11.23,8.97-22.4,0-8.09-3.27-15.47-9.22-20.77ZM369.84,32.58l-12.22,21.16c-.2.35-.64.48-.99.3-2.94-1.52-4.38-4.1-4.38-7.8s1.72-7.15,4.71-9.89c3.11-2.84,6.97-4.9,12.16-4.9.61.01,1.02.6.71,1.13Z"/>
    <rect x="179.43" y="18.35" width="19.89" height="50.28" rx=".38" ry=".38"/>
    <path d="M228.79,68.25c0,.21.17.38.38.38h19.13c.21,0,.38-.17.38-.38v-19.7c0-.16-.06-.32-.18-.43l-19.32-19.32c-.15-.15-.39-.04-.39.16v39.29Z"/>
    <path d="M435.6,33.27c-.3-.3-.47-.7-.47-1.13v-5.32c0-.44.36-.8.8-.8h4.96c.22,0,.4-.18.4-.4v-12.71c0-.22-.18-.4-.4-.4h-4.96c-.44,0-.8-.36-.8-.8v-5.61c0-.22-.18-.4-.4-.4h-12.61c-.22,0-.4.18-.4.4v5.61c0,.44-.36.8-.8.8h-6.65c-.22,0-.4.18-.4.4v12.71c0,.22.18.4.4.4h6.65c.44,0,.8.36.8.8v6.92c0,.42-.17.83-.47,1.13l-9.83,9.83c-.12.12-.19.28-.19.45v18.26c0,.21.26.32.41.17l9.26-9.26c.3-.3.82-.09.82.34v18.77c0,.22.18.4.4.4h12.61c.22,0,.4-.18.4-.4v-20.37c0-.43.52-.64.82-.34l4.93,4.93c.15.15.41.04.41-.17v-18.26c0-.17-.07-.33-.19-.45l-5.5-5.5Z"/>
    <path d="M491.24,53.88c.15-.15.04-.41-.17-.41h-14.52c-.17,0-.33.07-.45.19l-2.61,2.61c-.3.3-.79.31-1.1.02l-5.22-4.8c-.16-.15-.06-.42.16-.42h19.97c.22,0,.4-.18.4-.4V12.88c0-.22-.18-.4-.4-.4h-42.76c-.22,0-.4.18-.4.4v34.97h.01v25.57c0,.22.18.4.4.4h19.54c.21,0,.32-.25.17-.4l-7.11-7.41c-.21-.22-.33-.52-.33-.83v-6.42c0-.21.25-.32.4-.18l16.38,15.07c.12.11.27.17.43.17h16.81c.22,0,.32-.27.16-.42l-9.45-8.69c-.33-.31-.34-.83-.02-1.15l9.7-9.7ZM456.97,25.98c.57-.53,3.08-3.19,8.9-3.14,5.82-.04,8.33,2.61,8.9,3.14.12.11.06.29-.12.29h-17.57c-.17,0-.24-.17-.12-.29ZM457.09,39.96c-.17,0-.24-.17-.12-.29.57-.53,3.08-3.19,8.9-3.14,5.82-.04,8.33,2.61,8.9,3.14.12.11.06.29-.12.29h-17.57Z"/>
    <path d="M237.84,13.72l3.79,4.6s.02.03.04.04l4.6,3.79c.11.09.11.26,0,.34l-4.6,3.79s-.03.02-.04.04l-3.79,4.6c-.09.11-.26.11-.34,0l-3.79-4.6s-.02-.03-.04-.04l-4.6-3.79c-.11-.09-.11-.26,0-.34l4.6-3.79s.03-.02.04-.04l3.79-4.6c.09-.11.26-.11.34,0Z"/>
    <path d="M248.84,26.85l3.39,4.11s.02.02.03.03l4.11,3.39c.1.08.1.23,0,.31l-4.11,3.39s-.02.02-.03.03l-3.39,4.11c-.08.1-.23.1-.31,0l-3.39-4.11s-.02-.02-.03-.03l-4.11-3.39c-.1-.08-.1-.23,0-.31l4.11-3.39s.02-.02.03-.03l3.39-4.11c.08-.1.23-.1.31,0Z"/>
  </g>
</svg>